<svg xmlns="http://www.w3.org/2000/svg" viewBox="0 0 96 96"><path fill="currentColor" fill-rule="evenodd" d="M48 96C74.5097 96 96 74.5097 96 48C96 21.4903 74.5097 0 48 0C21.4903 0 0 21.4903 0 48C0 74.5097 21.4903 96 48 96ZM80.0001 52C80.0001 67.464 67.4641 80 52.0001 80C36.5361 80 24.0001 67.464 24.0001 52C24.0001 49.1303 24.4318 46.3615 25.2338 43.7548C27.4288 48.6165 32.3194 52 38.0001 52C45.7321 52 52.0001 45.732 52.0001 38C52.0001 32.3192 48.6166 27.4287 43.755 25.2337C46.3616 24.4317 49.1304 24 52.0001 24C67.4641 24 80.0001 36.536 80.0001 52Z" clip-rule="evenodd"/></svg>
